HIERARCHY
ROOT Hips
{
	OFFSET -0.001795 -0.223333 0.028219
	CHANNELS 6 Xposition Yposition Zposition Zrotation Yrotation Xrotation 
	JOINT LeftUpLeg
	{
		OFFSET 0.069520 -0.091406 -0.006815
		CHANNELS 3 Zrotation Yrotation Xrotation
		JOINT LeftLeg
		{
			OFFSET 0.034277 -0.375199 -0.004496
			CHANNELS 3 Zrotation Yrotation Xrotation
			JOINT LeftFoot
			{
				OFFSET -0.013596 -0.397961 -0.043693
				CHANNELS 3 Zrotation Yrotation Xrotation
				JOINT LeftToe
				{
					OFFSET 0.026358 -0.055791 0.119288
					CHANNELS 3 Zrotation Yrotation Xrotation
					End Site
					{
						OFFSET 0.000000 0.000000 0.000000
					}
				}
			}
		}
	}
	JOINT RightUpLeg
	{
		OFFSET -0.067670 -0.090522 -0.004320
		CHANNELS 3 Zrotation Yrotation Xrotation
		JOINT RightLeg
		{
			OFFSET -0.038290 -0.382569 -0.008850
			CHANNELS 3 Zrotation Yrotation Xrotation
			JOINT RightFoot
			{
				OFFSET 0.015774 -0.398415 -0.042312
				CHANNELS 3 Zrotation Yrotation Xrotation
				JOINT RightToe
				{
					OFFSET -0.025372 -0.048144 0.123348
					CHANNELS 3 Zrotation Yrotation Xrotation
					End Site
					{
						OFFSET 0.000000 0.000000 0.000000
					}
				}
			}
		}
	}
	JOINT Spine
	{
		OFFSET -0.002533 0.108963 -0.026696
		CHANNELS 3 Zrotation Yrotation Xrotation
		JOINT Spine1
		{
			OFFSET 0.005487 0.135180 0.001092
			CHANNELS 3 Zrotation Yrotation Xrotation
			JOINT Spine2
			{
				OFFSET 0.001457 0.052922 0.025425
				CHANNELS 3 Zrotation Yrotation Xrotation
				JOINT Neck
				{
					OFFSET -0.002778 0.213870 -0.042857
					CHANNELS 3 Zrotation Yrotation Xrotation
					JOINT Head
					{
						OFFSET 0.005152 0.064970 0.051349
						CHANNELS 3 Zrotation Yrotation Xrotation
						End Site
						{
							OFFSET 0.000000 0.000000 0.000000
						}
					}
				}
				JOINT LeftShoulder
				{
					OFFSET 0.078845 0.121749 -0.034090
					CHANNELS 3 Zrotation Yrotation Xrotation
					JOINT LeftArm
					{
						OFFSET 0.090977 0.030469 -0.008868
						CHANNELS 3 Zrotation Yrotation Xrotation
						JOINT LeftForeArm
						{
							OFFSET 0.259612 -0.012772 -0.027456
							CHANNELS 3 Zrotation Yrotation Xrotation
							JOINT LeftHand
							{
								OFFSET 0.249234 0.008986 -0.001171
								CHANNELS 3 Zrotation Yrotation Xrotation
								End Site
								{
									OFFSET 0.000000 0.000000 0.000000
								}
							}
						}
					}
				}
				JOINT RightShoulder
				{
					OFFSET -0.081759 0.118833 -0.038615
					CHANNELS 3 Zrotation Yrotation Xrotation
					JOINT RightArm
					{
						OFFSET -0.096012 0.032551 -0.009143
						CHANNELS 3 Zrotation Yrotation Xrotation
						JOINT RightForeArm
						{
							OFFSET -0.253742 -0.013329 -0.021401
							CHANNELS 3 Zrotation Yrotation Xrotation
							JOINT RightHand
							{
								OFFSET -0.255298 0.007772 -0.005559
								CHANNELS 3 Zrotation Yrotation Xrotation
								End Site
								{
									OFFSET 0.000000 0.000000 0.000000
								}
							}
						}
					}
				}
			}
		}
	}
}
MOTION
Frames: 15
Frame Time: 0.050000
0.000000 0.929992 0.000000 0.333491 -3.175771 2.947580 4.382608 -0.016545 0.677322 -4.073679 0.467902 -2.535672 5.415804 12.186156 5.034292 0.000000 0.000000 0.000000 -4.162259 0.351135 -3.147299 4.753026 -0.460611 2.658736 -4.488933 -11.279467 0.538738 0.000000 0.000000 0.000000 7.741395 -0.310395 1.705169 -5.772868 2.077176 -18.615406 -2.519632 6.523768 26.779956 9.798454 -2.896630 -28.599450 0.000000 0.000000 0.000000 -26.662652 -10.439200 3.238510 -46.747076 -0.076478 -7.042116 6.227593 -21.891051 -0.279156 0.000000 0.000000 0.000000 31.702478 -0.410964 -0.514137 51.211639 7.731005 -4.587766 -5.058724 23.330513 0.360394 0.000000 0.000000 0.000000 
-0.000303 0.930412 0.000275 0.063776 -2.913428 3.175037 5.181562 -0.004915 1.308617 -4.319930 0.484487 -3.607818 5.092124 11.515134 4.530090 0.000000 0.000000 0.000000 -3.825048 0.371097 -3.503410 4.666513 -0.453323 3.010971 -5.062356 -12.825546 1.321276 0.000000 0.000000 0.000000 8.502168 -0.226585 0.723986 -6.267194 2.245804 -18.000150 -3.466484 6.587673 26.561213 11.133369 -3.238624 -30.617215 0.000000 0.000000 0.000000 -25.846979 -10.144572 2.984890 -47.707956 0.095039 -7.246985 8.275695 -21.150297 -0.637697 0.000000 0.000000 0.000000 31.856470 -0.868231 -0.734477 52.485486 7.200360 -4.880927 -5.616012 24.311023 0.319313 0.000000 0.000000 0.000000 
-0.000411 0.930159 0.000203 0.103066 -2.338084 3.279238 5.323921 -0.042212 0.761846 -4.594482 0.508325 -2.465217 5.282391 11.795507 3.982963 0.000000 0.000000 0.000000 -3.770859 0.367854 -3.508158 4.710081 -0.466560 2.681689 -4.942097 -12.671350 1.824491 0.000000 0.000000 0.000000 8.972107 -0.228414 0.609818 -7.011743 2.452548 -18.708264 -3.367818 5.410514 27.899110 10.120520 -2.834910 -30.895346 0.000000 0.000000 0.000000 -25.296813 -10.066136 3.342381 -48.717249 -0.649297 -7.347279 9.720336 -20.334322 -0.803263 0.000000 0.000000 0.000000 31.032377 -0.485789 -0.734938 53.217842 7.190079 -4.933745 -4.850807 23.592638 0.422335 0.000000 0.000000 0.000000 
-0.000449 0.931314 -0.000009 0.183421 -1.893526 3.388535 5.460278 -0.055602 0.676988 -4.792976 0.522412 -2.411889 4.842537 10.854042 3.326305 0.000000 0.000000 0.000000 -3.626332 0.387687 -3.842626 4.724208 -0.474046 2.767625 -5.382009 -13.714728 1.979393 0.000000 0.000000 0.000000 9.063006 -0.171894 0.078886 -7.410548 2.584600 -18.533297 -3.487586 5.745854 28.112988 10.726746 -3.014589 -31.206990 0.000000 0.000000 0.000000 -25.663136 -10.843025 3.572938 -48.053079 0.570256 -7.617612 10.212552 -21.091770 -0.958689 0.000000 0.000000 0.000000 32.237679 -0.686415 -0.629024 52.574844 7.246428 -5.007071 -5.101143 23.651942 0.410726 0.000000 0.000000 0.000000 
-0.000291 0.931604 -0.000466 0.014420 -1.658976 3.390415 5.590137 -0.080577 0.238030 -4.898819 0.535208 -1.773881 4.641452 10.364908 2.788766 0.000000 0.000000 0.000000 -3.456902 0.398619 -4.024014 4.536666 -0.453731 3.144695 -5.309730 -13.501533 1.685341 0.000000 0.000000 0.000000 8.728847 -0.171086 0.106707 -6.819709 2.434179 -18.060193 -3.674119 5.775520 27.783386 10.834968 -3.065816 -30.977603 0.000000 0.000000 0.000000 -26.057160 -10.379950 3.175568 -47.857944 0.576563 -7.520885 10.096540 -22.264757 -1.005849 0.000000 0.000000 0.000000 31.934969 -0.293431 -0.261497 52.703289 7.615095 -4.834246 -5.208054 22.389079 0.355895 0.000000 0.000000 0.000000 
0.000135 0.931993 -0.000876 -0.174383 -1.347140 3.486235 5.513446 -0.088883 0.140401 -4.532498 0.496419 -1.629565 4.341386 9.754556 2.657023 0.000000 0.000000 0.000000 -3.543089 0.416930 -4.304473 4.775645 -0.489193 3.441111 -5.464140 -13.902476 1.892725 0.000000 0.000000 0.000000 8.643043 -0.168112 0.051508 -6.910392 2.463231 -18.134591 -3.633679 5.792108 27.926666 10.610323 -2.964227 -30.718925 0.000000 0.000000 0.000000 -25.903526 -10.492047 3.172068 -47.766422 0.521675 -7.481917 9.396492 -22.661398 -0.900693 0.000000 0.000000 0.000000 32.000573 -0.210868 -0.102976 52.662991 7.657526 -4.858510 -4.947975 22.104262 0.396742 0.000000 0.000000 0.000000 
0.000887 0.932860 -0.001096 -0.218821 -0.991124 3.490163 5.528183 -0.110217 -0.241374 -4.541678 0.495721 -1.295627 4.204979 9.563213 2.974481 0.000000 0.000000 0.000000 -3.567920 0.429267 -4.515759 4.714046 -0.486598 3.834662 -5.453158 -13.924414 2.141249 0.000000 0.000000 0.000000 8.447598 -0.164192 0.029280 -6.999641 2.510982 -17.781631 -3.508231 5.743178 27.643036 10.890839 -3.110440 -30.522138 0.000000 0.000000 0.000000 -26.011922 -10.226542 2.909124 -47.390205 0.332569 -7.296190 9.160627 -23.455900 -0.903207 0.000000 0.000000 0.000000 31.878061 -0.197469 -0.020507 52.515913 7.874406 -4.748126 -4.806965 21.875737 0.412394 0.000000 0.000000 0.000000 
0.001665 0.933345 -0.001050 -0.309922 -0.672471 3.708354 5.365002 -0.129530 -0.579652 -4.353722 0.474107 -1.073435 3.976697 9.053331 2.675031 0.000000 0.000000 0.000000 -3.554812 0.441231 -4.690674 4.834434 -0.507643 3.851508 -5.646608 -14.364886 2.090959 0.000000 0.000000 0.000000 8.226020 -0.128307 -0.323495 -7.012192 2.519035 -17.740927 -3.364315 5.812357 27.866343 10.914726 -3.257207 -29.567830 0.000000 0.000000 0.000000 -26.011143 -10.583254 3.037783 -46.917712 0.165776 -7.151338 8.898156 -24.155124 -0.894085 0.000000 0.000000 0.000000 32.067532 -0.166751 0.136361 52.065005 8.160676 -4.687180 -4.509640 22.313484 0.482879 0.000000 0.000000 0.000000 
0.002294 0.933875 -0.000952 -0.427156 -0.599575 4.047108 5.229007 -0.144664 -0.843601 -4.160251 0.453391 -1.127734 3.947864 8.999353 2.675699 0.000000 0.000000 0.000000 -3.559427 0.458808 -4.909205 4.787660 -0.500707 3.463837 -5.654762 -14.427896 2.376921 0.000000 0.000000 0.000000 8.065880 -0.097810 -0.656218 -7.064719 2.526579 -17.888779 -3.234533 6.037802 27.942565 11.015272 -3.309568 -29.350654 0.000000 0.000000 0.000000 -25.824326 -10.621726 2.970274 -46.714736 -0.033917 -7.026212 9.074266 -24.371530 -0.954724 0.000000 0.000000 0.000000 32.052580 -0.337181 0.139613 51.872340 8.124991 -4.735298 -4.415506 22.745161 0.524063 0.000000 0.000000 0.000000 
0.002532 0.933912 -0.000920 -0.456834 -0.417016 4.268804 5.326745 -0.157373 -0.991443 -4.266925 0.461773 -1.127562 3.839346 8.725612 2.420601 0.000000 0.000000 0.000000 -3.436672 0.473824 -5.099506 4.619560 -0.480519 3.325038 -5.599282 -14.265489 2.089625 0.000000 0.000000 0.000000 7.864876 -0.081825 -0.836146 -7.191791 2.557524 -18.071323 -3.126509 6.111043 28.162257 11.323550 -3.479841 -29.240293 0.000000 0.000000 0.000000 -25.660198 -10.548193 2.872208 -46.156404 -0.422662 -6.803222 9.321306 -24.321691 -1.016798 0.000000 0.000000 0.000000 32.141698 -0.251302 0.290833 51.565888 8.238714 -4.723322 -4.251162 23.442583 0.582290 0.000000 0.000000 0.000000 
0.002349 0.933803 -0.000853 -0.593574 -0.776953 4.602987 5.336640 -0.166521 -1.186433 -4.057793 0.443737 -1.187013 3.911292 8.906773 2.595671 0.000000 0.000000 0.000000 -3.412293 0.489117 -5.240401 4.740040 -0.490097 3.021733 -5.605917 -14.276866 2.079124 0.000000 0.000000 0.000000 7.871271 -0.069800 -1.007680 -7.361988 2.595305 -18.112972 -3.014847 6.453865 28.189033 11.403720 -3.465954 -29.459943 0.000000 0.000000 0.000000 -25.569976 -10.667744 2.915775 -45.473711 -0.397211 -6.698246 9.616070 -24.250516 -1.088183 0.000000 0.000000 0.000000 32.113618 -0.202942 0.377287 51.445103 8.425864 -4.663639 -4.092153 23.905634 0.632526 0.000000 0.000000 0.000000 
0.001735 0.933910 -0.000373 -0.719223 -0.979041 4.985131 5.694950 -0.187331 -1.537253 -4.306238 0.470688 -1.085819 4.031956 9.168410 2.708666 0.000000 0.000000 0.000000 -3.017204 0.519385 -5.543499 4.803150 -0.493858 2.829912 -5.521927 -14.055215 1.892860 0.000000 0.000000 0.000000 7.897873 -0.067647 -1.109712 -7.460314 2.610156 -18.241044 -2.821699 6.577895 28.140848 11.571873 -3.503496 -29.738907 0.000000 0.000000 0.000000 -25.683203 -10.575601 2.856566 -44.902809 -0.779678 -6.463133 10.028384 -23.816883 -1.156223 0.000000 0.000000 0.000000 32.240060 -0.149712 0.398480 51.087254 8.561029 -4.583935 -3.718563 24.434557 0.715491 0.000000 0.000000 0.000000 
0.000581 0.933834 0.000941 -0.820337 -1.139806 5.096839 5.838529 -0.193235 -1.671770 -4.340857 0.476227 -0.968522 4.039411 9.207838 2.824497 0.000000 0.000000 0.000000 -2.553067 0.526011 -5.544418 4.742543 -0.483751 2.900720 -5.563590 -14.101315 1.601595 0.000000 0.000000 0.000000 8.002762 -0.060699 -1.200636 -7.515496 2.621088 -18.266144 -2.760369 6.662350 28.241742 11.567885 -3.458372 -30.001388 0.000000 0.000000 0.000000 -25.864834 -10.823945 3.017176 -44.166731 -0.984693 -6.284152 10.000052 -23.151618 -1.119921 0.000000 0.000000 0.000000 32.569880 -0.008151 0.485557 50.753032 8.835064 -4.477127 -3.765443 25.228224 0.738327 0.000000 0.000000 0.000000 
-0.001235 0.933849 0.003264 -1.007193 -1.275540 5.265226 6.269872 -0.188681 -1.465084 -4.655309 0.508206 -1.172364 4.137354 9.442254 3.036888 0.000000 0.000000 0.000000 -2.048132 0.546850 -5.715000 4.768724 -0.485065 3.058830 -5.340426 -13.521035 1.230832 0.000000 0.000000 0.000000 8.075623 -0.063356 -1.215492 -7.483388 2.606567 -18.305637 -2.708560 6.971588 28.258355 11.896534 -3.557918 -30.233293 0.000000 0.000000 0.000000 -26.123112 -11.182082 3.145330 -43.515321 -1.186833 -6.083275 10.426452 -22.531565 -1.184076 0.000000 0.000000 0.000000 32.949700 -0.292973 0.374823 50.639680 8.892592 -4.491504 -3.696562 25.949530 0.801115 0.000000 0.000000 0.000000 
-0.003937 0.933687 0.006521 -1.054601 -1.310141 5.244159 6.560711 -0.177113 -1.089205 -4.646265 0.506687 -1.316159 4.000805 9.127180 2.818260 0.000000 0.000000 0.000000 -1.674270 0.559507 -5.811373 4.795784 -0.488824 3.584370 -5.319182 -13.406613 0.880380 0.000000 0.000000 0.000000 8.131459 -0.089610 -0.981699 -7.360432 2.567450 -18.369535 -2.754324 6.845588 28.057066 11.815451 -3.472107 -30.539557 0.000000 0.000000 0.000000 -26.479562 -11.253565 3.219140 -42.825752 -0.964756 -6.035692 10.026028 -22.381482 -1.099809 0.000000 0.000000 0.000000 33.206836 -0.170003 0.376685 50.408204 8.848597 -4.461137 -3.595305 26.284881 0.821412 0.000000 0.000000 0.000000 
